solid vcg
  facet normal 0.000000e+000 -1.000000e+000 0.000000e+000
    outer loop
      vertex  4.854105e+001 -3.273532e+001 -3.526713e+001
      vertex  5.706342e+001 -3.273532e+001 -1.854103e+001
      vertex  0.000000e+000 -3.273532e+001 0.000000e+000
    endloop
  endfacet
  facet normal 0.000000e+000 -1.000000e+000 0.000000e+000
    outer loop
      vertex  3.526713e+001 -3.273532e+001 -4.854105e+001
      vertex  4.854105e+001 -3.273532e+001 -3.526713e+001
      vertex  0.000000e+000 -3.273532e+001 0.000000e+000
    endloop
  endfacet
  facet normal 0.000000e+000 -1.000000e+000 0.000000e+000
    outer loop
      vertex  1.854103e+001 -3.273532e+001 -5.706342e+001
      vertex  3.526713e+001 -3.273532e+001 -4.854105e+001
      vertex  0.000000e+000 -3.273532e+001 0.000000e+000
    endloop
  endfacet
  facet normal 0.000000e+000 -1.000000e+000 0.000000e+000
    outer loop
      vertex  0.000000e+000 -3.273532e+001 -6.000003e+001
      vertex  1.854103e+001 -3.273532e+001 -5.706342e+001
      vertex  0.000000e+000 -3.273532e+001 0.000000e+000
    endloop
  endfacet
  facet normal 0.000000e+000 -1.000000e+000 0.000000e+000
    outer loop
      vertex  -1.854103e+001 -3.273532e+001 -5.706342e+001
      vertex  0.000000e+000 -3.273532e+001 -6.000003e+001
      vertex  0.000000e+000 -3.273532e+001 0.000000e+000
    endloop
  endfacet
  facet normal 0.000000e+000 -1.000000e+000 0.000000e+000
    outer loop
      vertex  -3.526713e+001 -3.273532e+001 -4.854105e+001
      vertex  -1.854103e+001 -3.273532e+001 -5.706342e+001
      vertex  0.000000e+000 -3.273532e+001 0.000000e+000
    endloop
  endfacet
  facet normal 0.000000e+000 -1.000000e+000 0.000000e+000
    outer loop
      vertex  -4.854105e+001 -3.273532e+001 -3.526713e+001
      vertex  -3.526713e+001 -3.273532e+001 -4.854105e+001
      vertex  0.000000e+000 -3.273532e+001 0.000000e+000
    endloop
  endfacet
  facet normal 0.000000e+000 -1.000000e+000 0.000000e+000
    outer loop
      vertex  -5.706342e+001 -3.273532e+001 -1.854102e+001
      vertex  -4.854105e+001 -3.273532e+001 -3.526713e+001
      vertex  0.000000e+000 -3.273532e+001 0.000000e+000
    endloop
  endfacet
  facet normal 0.000000e+000 -1.000000e+000 0.000000e+000
    outer loop
      vertex  -6.000000e+001 -3.273532e+001 0.000000e+000
      vertex  -5.706342e+001 -3.273532e+001 -1.854102e+001
      vertex  0.000000e+000 -3.273532e+001 0.000000e+000
    endloop
  endfacet
  facet normal 0.000000e+000 -1.000000e+000 -0.000000e+000
    outer loop
      vertex  -5.706342e+001 -3.273532e+001 1.854102e+001
      vertex  -6.000000e+001 -3.273532e+001 0.000000e+000
      vertex  0.000000e+000 -3.273532e+001 0.000000e+000
    endloop
  endfacet
  facet normal 0.000000e+000 -1.000000e+000 -0.000000e+000
    outer loop
      vertex  -4.854102e+001 -3.273532e+001 3.526713e+001
      vertex  -5.706342e+001 -3.273532e+001 1.854102e+001
      vertex  0.000000e+000 -3.273532e+001 0.000000e+000
    endloop
  endfacet
  facet normal 0.000000e+000 -1.000000e+000 -0.000000e+000
    outer loop
      vertex  -3.526713e+001 -3.273532e+001 4.854102e+001
      vertex  -4.854102e+001 -3.273532e+001 3.526713e+001
      vertex  0.000000e+000 -3.273532e+001 0.000000e+000
    endloop
  endfacet
  facet normal 0.000000e+000 -1.000000e+000 -0.000000e+000
    outer loop
      vertex  -1.854102e+001 -3.273532e+001 5.706339e+001
      vertex  -3.526713e+001 -3.273532e+001 4.854102e+001
      vertex  0.000000e+000 -3.273532e+001 0.000000e+000
    endloop
  endfacet
  facet normal 0.000000e+000 -1.000000e+000 -0.000000e+000
    outer loop
      vertex  -3.000000e-006 -3.273532e+001 6.000000e+001
      vertex  -1.854102e+001 -3.273532e+001 5.706339e+001
      vertex  0.000000e+000 -3.273532e+001 0.000000e+000
    endloop
  endfacet
  facet normal -0.000000e+000 -1.000000e+000 0.000000e+000
    outer loop
      vertex  1.854102e+001 -3.273532e+001 5.706339e+001
      vertex  -3.000000e-006 -3.273532e+001 6.000000e+001
      vertex  0.000000e+000 -3.273532e+001 0.000000e+000
    endloop
  endfacet
  facet normal -0.000000e+000 -1.000000e+000 0.000000e+000
    outer loop
      vertex  3.526710e+001 -3.273532e+001 4.854102e+001
      vertex  1.854102e+001 -3.273532e+001 5.706339e+001
      vertex  0.000000e+000 -3.273532e+001 0.000000e+000
    endloop
  endfacet
  facet normal -0.000000e+000 -1.000000e+000 0.000000e+000
    outer loop
      vertex  4.854102e+001 -3.273532e+001 3.526713e+001
      vertex  3.526710e+001 -3.273532e+001 4.854102e+001
      vertex  0.000000e+000 -3.273532e+001 0.000000e+000
    endloop
  endfacet
  facet normal -0.000000e+000 -1.000000e+000 0.000000e+000
    outer loop
      vertex  5.706339e+001 -3.273532e+001 1.854102e+001
      vertex  4.854102e+001 -3.273532e+001 3.526713e+001
      vertex  0.000000e+000 -3.273532e+001 0.000000e+000
    endloop
  endfacet
  facet normal 0.000000e+000 -1.000000e+000 0.000000e+000
    outer loop
      vertex  6.000000e+001 -3.273532e+001 0.000000e+000
      vertex  5.706339e+001 -3.273532e+001 1.854102e+001
      vertex  0.000000e+000 -3.273532e+001 0.000000e+000
    endloop
  endfacet
  facet normal 0.000000e+000 -1.000000e+000 0.000000e+000
    outer loop
      vertex  5.706342e+001 -3.273532e+001 -1.854103e+001
      vertex  6.000000e+001 -3.273532e+001 0.000000e+000
      vertex  0.000000e+000 -3.273532e+001 0.000000e+000
    endloop
  endfacet
  facet normal 9.876884e-001 0.000000e+000 -1.564344e-001
    outer loop
      vertex  5.997000e+001 -3.277018e+001 0.000000e+000
      vertex  5.703486e+001 -3.277018e+001 -1.853175e+001
      vertex  5.997000e+001 3.694834e+001 0.000000e+000
    endloop
  endfacet
  facet normal 9.876884e-001 0.000000e+000 -1.564344e-001
    outer loop
      vertex  5.997000e+001 3.694834e+001 0.000000e+000
      vertex  5.703486e+001 -3.277018e+001 -1.853175e+001
      vertex  5.703486e+001 3.694834e+001 -1.853175e+001
    endloop
  endfacet
  facet normal 8.910066e-001 0.000000e+000 -4.539902e-001
    outer loop
      vertex  5.703486e+001 -3.277018e+001 -1.853175e+001
      vertex  4.851675e+001 -3.277018e+001 -3.524949e+001
      vertex  5.703486e+001 3.694834e+001 -1.853175e+001
    endloop
  endfacet
  facet normal 8.910066e-001 0.000000e+000 -4.539902e-001
    outer loop
      vertex  5.703486e+001 3.694834e+001 -1.853175e+001
      vertex  4.851675e+001 -3.277018e+001 -3.524949e+001
      vertex  4.851675e+001 3.694834e+001 -3.524949e+001
    endloop
  endfacet
  facet normal 7.071068e-001 0.000000e+000 -7.071068e-001
    outer loop
      vertex  4.851675e+001 -3.277018e+001 -3.524949e+001
      vertex  3.524949e+001 -3.277018e+001 -4.851675e+001
      vertex  4.851675e+001 3.694834e+001 -3.524949e+001
    endloop
  endfacet
  facet normal 7.071068e-001 0.000000e+000 -7.071068e-001
    outer loop
      vertex  4.851675e+001 3.694834e+001 -3.524949e+001
      vertex  3.524949e+001 -3.277018e+001 -4.851675e+001
      vertex  3.524949e+001 3.694834e+001 -4.851675e+001
    endloop
  endfacet
  facet normal 4.539903e-001 0.000000e+000 -8.910066e-001
    outer loop
      vertex  3.524949e+001 -3.277018e+001 -4.851675e+001
      vertex  1.853175e+001 -3.277018e+001 -5.703486e+001
      vertex  3.524949e+001 3.694834e+001 -4.851675e+001
    endloop
  endfacet
  facet normal 4.539903e-001 0.000000e+000 -8.910066e-001
    outer loop
      vertex  3.524949e+001 3.694834e+001 -4.851675e+001
      vertex  1.853175e+001 -3.277018e+001 -5.703486e+001
      vertex  1.853175e+001 3.694834e+001 -5.703486e+001
    endloop
  endfacet
  facet normal 1.564343e-001 0.000000e+000 -9.876884e-001
    outer loop
      vertex  1.853175e+001 -3.277018e+001 -5.703486e+001
      vertex  0.000000e+000 -3.277018e+001 -5.997000e+001
      vertex  1.853175e+001 3.694834e+001 -5.703486e+001
    endloop
  endfacet
  facet normal 1.564343e-001 0.000000e+000 -9.876884e-001
    outer loop
      vertex  1.853175e+001 3.694834e+001 -5.703486e+001
      vertex  0.000000e+000 -3.277018e+001 -5.997000e+001
      vertex  0.000000e+000 3.694834e+001 -5.997000e+001
    endloop
  endfacet
  facet normal -1.564344e-001 0.000000e+000 -9.876884e-001
    outer loop
      vertex  0.000000e+000 -3.277018e+001 -5.997000e+001
      vertex  -1.853175e+001 -3.277018e+001 -5.703486e+001
      vertex  0.000000e+000 3.694834e+001 -5.997000e+001
    endloop
  endfacet
  facet normal -1.564344e-001 0.000000e+000 -9.876884e-001
    outer loop
      vertex  0.000000e+000 3.694834e+001 -5.997000e+001
      vertex  -1.853175e+001 -3.277018e+001 -5.703486e+001
      vertex  -1.853175e+001 3.694834e+001 -5.703486e+001
    endloop
  endfacet
  facet normal -4.539902e-001 0.000000e+000 -8.910066e-001
    outer loop
      vertex  -1.853175e+001 -3.277018e+001 -5.703486e+001
      vertex  -3.524949e+001 -3.277018e+001 -4.851675e+001
      vertex  -1.853175e+001 3.694834e+001 -5.703486e+001
    endloop
  endfacet
  facet normal -4.539902e-001 0.000000e+000 -8.910066e-001
    outer loop
      vertex  -1.853175e+001 3.694834e+001 -5.703486e+001
      vertex  -3.524949e+001 -3.277018e+001 -4.851675e+001
      vertex  -3.524949e+001 3.694834e+001 -4.851675e+001
    endloop
  endfacet
  facet normal -7.071068e-001 0.000000e+000 -7.071068e-001
    outer loop
      vertex  -3.524949e+001 -3.277018e+001 -4.851675e+001
      vertex  -4.851675e+001 -3.277018e+001 -3.524949e+001
      vertex  -3.524949e+001 3.694834e+001 -4.851675e+001
    endloop
  endfacet
  facet normal -7.071068e-001 0.000000e+000 -7.071068e-001
    outer loop
      vertex  -3.524949e+001 3.694834e+001 -4.851675e+001
      vertex  -4.851675e+001 -3.277018e+001 -3.524949e+001
      vertex  -4.851675e+001 3.694834e+001 -3.524949e+001
    endloop
  endfacet
  facet normal -8.910059e-001 0.000000e+000 -4.539916e-001
    outer loop
      vertex  -4.851675e+001 -3.277018e+001 -3.524949e+001
      vertex  -5.703489e+001 -3.277018e+001 -1.853176e+001
      vertex  -4.851675e+001 3.694834e+001 -3.524949e+001
    endloop
  endfacet
  facet normal -8.910059e-001 0.000000e+000 -4.539916e-001
    outer loop
      vertex  -4.851675e+001 3.694834e+001 -3.524949e+001
      vertex  -5.703489e+001 -3.277018e+001 -1.853176e+001
      vertex  -5.703489e+001 3.694834e+001 -1.853176e+001
    endloop
  endfacet
  facet normal -9.876884e-001 0.000000e+000 -1.564345e-001
    outer loop
      vertex  -5.703489e+001 -3.277018e+001 -1.853176e+001
      vertex  -5.997003e+001 -3.277018e+001 -6.000000e-006
      vertex  -5.703489e+001 3.694834e+001 -1.853176e+001
    endloop
  endfacet
  facet normal -9.876884e-001 0.000000e+000 -1.564345e-001
    outer loop
      vertex  -5.703489e+001 3.694834e+001 -1.853176e+001
      vertex  -5.997003e+001 -3.277018e+001 -6.000000e-006
      vertex  -5.997003e+001 3.694834e+001 -6.000000e-006
    endloop
  endfacet
  facet normal -9.876884e-001 0.000000e+000 1.564345e-001
    outer loop
      vertex  -5.997003e+001 -3.277018e+001 -6.000000e-006
      vertex  -5.703489e+001 -3.277018e+001 1.853175e+001
      vertex  -5.997003e+001 3.694834e+001 -6.000000e-006
    endloop
  endfacet
  facet normal -9.876884e-001 0.000000e+000 1.564345e-001
    outer loop
      vertex  -5.997003e+001 3.694834e+001 -6.000000e-006
      vertex  -5.703489e+001 -3.277018e+001 1.853175e+001
      vertex  -5.703489e+001 3.694834e+001 1.853175e+001
    endloop
  endfacet
  facet normal -8.910068e-001 0.000000e+000 4.539900e-001
    outer loop
      vertex  -5.703489e+001 -3.277018e+001 1.853175e+001
      vertex  -4.851678e+001 -3.277018e+001 3.524949e+001
      vertex  -5.703489e+001 3.694834e+001 1.853175e+001
    endloop
  endfacet
  facet normal -8.910068e-001 0.000000e+000 4.539900e-001
    outer loop
      vertex  -5.703489e+001 3.694834e+001 1.853175e+001
      vertex  -4.851678e+001 -3.277018e+001 3.524949e+001
      vertex  -4.851678e+001 3.694834e+001 3.524949e+001
    endloop
  endfacet
  facet normal -7.071075e-001 0.000000e+000 7.071061e-001
    outer loop
      vertex  -4.851678e+001 -3.277018e+001 3.524949e+001
      vertex  -3.524952e+001 -3.277018e+001 4.851678e+001
      vertex  -4.851678e+001 3.694834e+001 3.524949e+001
    endloop
  endfacet
  facet normal -7.071075e-001 0.000000e+000 7.071061e-001
    outer loop
      vertex  -4.851678e+001 3.694834e+001 3.524949e+001
      vertex  -3.524952e+001 -3.277018e+001 4.851678e+001
      vertex  -3.524952e+001 3.694834e+001 4.851678e+001
    endloop
  endfacet
  facet normal -4.539898e-001 0.000000e+000 8.910069e-001
    outer loop
      vertex  -3.524952e+001 -3.277018e+001 4.851678e+001
      vertex  -1.853176e+001 -3.277018e+001 5.703489e+001
      vertex  -3.524952e+001 3.694834e+001 4.851678e+001
    endloop
  endfacet
  facet normal -4.539898e-001 0.000000e+000 8.910069e-001
    outer loop
      vertex  -3.524952e+001 3.694834e+001 4.851678e+001
      vertex  -1.853176e+001 -3.277018e+001 5.703489e+001
      vertex  -1.853176e+001 3.694834e+001 5.703489e+001
    endloop
  endfacet
  facet normal -1.564345e-001 0.000000e+000 9.876884e-001
    outer loop
      vertex  -1.853176e+001 -3.277018e+001 5.703489e+001
      vertex  -6.000000e-006 -3.277018e+001 5.997003e+001
      vertex  -1.853176e+001 3.694834e+001 5.703489e+001
    endloop
  endfacet
  facet normal -1.564345e-001 0.000000e+000 9.876884e-001
    outer loop
      vertex  -1.853176e+001 3.694834e+001 5.703489e+001
      vertex  -6.000000e-006 -3.277018e+001 5.997003e+001
      vertex  -6.000000e-006 3.694834e+001 5.997003e+001
    endloop
  endfacet
  facet normal 1.564345e-001 -0.000000e+000 9.876884e-001
    outer loop
      vertex  -6.000000e-006 -3.277018e+001 5.997003e+001
      vertex  1.853175e+001 -3.277018e+001 5.703489e+001
      vertex  -6.000000e-006 3.694834e+001 5.997003e+001
    endloop
  endfacet
  facet normal 1.564345e-001 0.000000e+000 9.876884e-001
    outer loop
      vertex  -6.000000e-006 3.694834e+001 5.997003e+001
      vertex  1.853175e+001 -3.277018e+001 5.703489e+001
      vertex  1.853175e+001 3.694834e+001 5.703489e+001
    endloop
  endfacet
  facet normal 4.539901e-001 -0.000000e+000 8.910067e-001
    outer loop
      vertex  1.853175e+001 -3.277018e+001 5.703489e+001
      vertex  3.524949e+001 -3.277018e+001 4.851678e+001
      vertex  1.853175e+001 3.694834e+001 5.703489e+001
    endloop
  endfacet
  facet normal 4.539901e-001 0.000000e+000 8.910067e-001
    outer loop
      vertex  1.853175e+001 3.694834e+001 5.703489e+001
      vertex  3.524949e+001 -3.277018e+001 4.851678e+001
      vertex  3.524949e+001 3.694834e+001 4.851678e+001
    endloop
  endfacet
  facet normal 7.071061e-001 -0.000000e+000 7.071075e-001
    outer loop
      vertex  3.524949e+001 -3.277018e+001 4.851678e+001
      vertex  4.851678e+001 -3.277018e+001 3.524952e+001
      vertex  3.524949e+001 3.694834e+001 4.851678e+001
    endloop
  endfacet
  facet normal 7.071061e-001 0.000000e+000 7.071075e-001
    outer loop
      vertex  3.524949e+001 3.694834e+001 4.851678e+001
      vertex  4.851678e+001 -3.277018e+001 3.524952e+001
      vertex  4.851678e+001 3.694834e+001 3.524952e+001
    endloop
  endfacet
  facet normal 8.910069e-001 -0.000000e+000 4.539898e-001
    outer loop
      vertex  4.851678e+001 -3.277018e+001 3.524952e+001
      vertex  5.703489e+001 -3.277018e+001 1.853176e+001
      vertex  4.851678e+001 3.694834e+001 3.524952e+001
    endloop
  endfacet
  facet normal 8.910069e-001 0.000000e+000 4.539898e-001
    outer loop
      vertex  4.851678e+001 3.694834e+001 3.524952e+001
      vertex  5.703489e+001 -3.277018e+001 1.853176e+001
      vertex  5.703489e+001 3.694834e+001 1.853176e+001
    endloop
  endfacet
  facet normal 9.876886e-001 -0.000000e+000 1.564328e-001
    outer loop
      vertex  5.703489e+001 -3.277018e+001 1.853176e+001
      vertex  5.997000e+001 -3.277018e+001 0.000000e+000
      vertex  5.703489e+001 3.694834e+001 1.853176e+001
    endloop
  endfacet
  facet normal 9.876886e-001 0.000000e+000 1.564328e-001
    outer loop
      vertex  5.703489e+001 3.694834e+001 1.853176e+001
      vertex  5.997000e+001 -3.277018e+001 0.000000e+000
      vertex  5.997000e+001 3.694834e+001 0.000000e+000
    endloop
  endfacet
endsolid vcg
